<svg xmlns="http://www.w3.org/2000/svg" width="1200" height="750" viewBox="0 0 1200 750" role="img" aria-labelledby="title desc">
  <title id="title">Vista previa de Task Atom Manager</title>
  <desc id="desc">Mockup tipo screenshot para el proyecto Atom Front.</desc>
  <defs><linearGradient id="g" x1="0" x2="1" y1="0" y2="1"><stop stop-color="#0f172a"/><stop offset="1" stop-color="#2563eb"/></linearGradient></defs>
  <rect width="1200" height="750" rx="36" fill="#e2e8f0"/>
  <rect x="42" y="42" width="1116" height="666" rx="28" fill="white"/>
  <rect x="42" y="42" width="1116" height="78" rx="28" fill="url(#g)"/>
  <circle cx="88" cy="82" r="11" fill="#f87171"/><circle cx="124" cy="82" r="11" fill="#facc15"/><circle cx="160" cy="82" r="11" fill="#4ade80"/>
  <text x="220" y="90" font-family="Inter,Arial" font-size="26" font-weight="700" fill="white">Task Atom Manager</text>
  <rect x="92" y="170" width="260" height="488" rx="24" fill="#f8fafc" stroke="#e2e8f0"/>
  <text x="122" y="222" font-family="Inter,Arial" font-size="22" font-weight="700" fill="#0f172a">Flujo de tareas</text>
  <rect x="122" y="268" width="200" height="36" rx="18" fill="#dbeafe"/><rect x="122" y="326" width="170" height="36" rx="18" fill="#e0f2fe"/><rect x="122" y="384" width="220" height="36" rx="18" fill="#f1f5f9"/>
  <rect x="402" y="170" width="318" height="210" rx="24" fill="#eff6ff" stroke="#bfdbfe"/>
  <text x="438" y="232" font-family="Inter,Arial" font-size="24" font-weight="800" fill="#1d4ed8">Backlog</text>
  <rect x="438" y="266" width="236" height="26" rx="13" fill="#93c5fd"/><rect x="438" y="312" width="182" height="20" rx="10" fill="#bfdbfe"/>
  <rect x="770" y="170" width="318" height="210" rx="24" fill="#f0fdf4" stroke="#bbf7d0"/>
  <text x="806" y="232" font-family="Inter,Arial" font-size="24" font-weight="800" fill="#15803d">En progreso</text>
  <rect x="806" y="266" width="236" height="26" rx="13" fill="#86efac"/><rect x="806" y="312" width="182" height="20" rx="10" fill="#bbf7d0"/>
  <rect x="402" y="428" width="686" height="230" rx="24" fill="#f8fafc" stroke="#e2e8f0"/>
  <text x="438" y="490" font-family="Inter,Arial" font-size="24" font-weight="800" fill="#0f172a">Dashboard Angular</text>
  <path d="M438 600 C520 540 570 650 650 590 S800 530 882 594 1010 565 1048 535" fill="none" stroke="#2563eb" stroke-width="14" stroke-linecap="round"/>
</svg>
