<svg xmlns="http://www.w3.org/2000/svg" width="1200" height="750" viewBox="0 0 1200 750" role="img" aria-labelledby="title desc">
  <title id="title">Vista previa de Ozon Front</title><desc id="desc">Mockup tipo screenshot para el proyecto Ozon Front.</desc>
  <rect width="1200" height="750" rx="36" fill="#ecfeff"/><rect x="48" y="48" width="1104" height="654" rx="30" fill="#ffffff"/>
  <rect x="48" y="48" width="1104" height="92" rx="30" fill="#0891b2"/><text x="96" y="106" font-family="Inter,Arial" font-size="30" font-weight="800" fill="white">Ozon Front</text>
  <rect x="96" y="192" width="1008" height="150" rx="28" fill="#cffafe"/><text x="136" y="258" font-family="Inter,Arial" font-size="34" font-weight="800" fill="#164e63">Experiencia web React</text><text x="136" y="306" font-family="Inter,Arial" font-size="22" fill="#0e7490">Panel con indicadores, navegación y componentes reutilizables.</text>
  <rect x="96" y="390" width="300" height="220" rx="24" fill="#f8fafc" stroke="#bae6fd"/><rect x="450" y="390" width="300" height="220" rx="24" fill="#f8fafc" stroke="#bae6fd"/><rect x="804" y="390" width="300" height="220" rx="24" fill="#f8fafc" stroke="#bae6fd"/>
  <circle cx="246" cy="486" r="54" fill="#06b6d4"/><circle cx="600" cy="486" r="54" fill="#38bdf8"/><circle cx="954" cy="486" r="54" fill="#67e8f9"/>
  <rect x="156" y="566" width="180" height="22" rx="11" fill="#cbd5e1"/><rect x="510" y="566" width="180" height="22" rx="11" fill="#cbd5e1"/><rect x="864" y="566" width="180" height="22" rx="11" fill="#cbd5e1"/>
</svg>
